<svg xmlns="http://www.w3.org/2000/svg" xmlns:xlink="http://www.w3.org/1999/xlink" viewBox="0 0 21.18 22.58"><defs><style>.cls-1{fill:none;stroke:#003449;stroke-miterlimit:10;}.cls-2{fill:#003449;}.cls-3{fill:url(#linear-gradient);}</style><linearGradient id="linear-gradient" x1="8.5" y1="6.45" x2="20.22" y2="6.45" gradientUnits="userSpaceOnUse"><stop offset="0" stop-color="#ff8033"/><stop offset="1" stop-color="#ff933a"/></linearGradient></defs><title>notification icon clean</title><g id="Layer_2" data-name="Layer 2"><g id="Layer_1-2" data-name="Layer 1"><path class="cls-1" d="M20.53,14.55,1.28,21.94a8,8,0,0,1,1-7.3,15.4,15.4,0,0,1-.81-1.78c-2-5.29-.8-10.69,2.74-12s8.06,1.83,10.1,7.13A15.4,15.4,0,0,1,14.9,9.8,8,8,0,0,1,20.53,14.55Z"/><path class="cls-2" d="M14.59,16.83a5.46,5.46,0,0,1-3,3.16,5.46,5.46,0,0,1-4.36-.33Z"/><line class="cls-1" x1="1.28" y1="21.94" x2="1.18" y2="21.98"/><circle class="cls-3" cx="14.36" cy="6.45" r="5.86"/></g></g></svg>